<svg width="29" height="30" viewBox="0 0 29 30" fill="none" xmlns="http://www.w3.org/2000/svg">
<mask id="mask0_14_391" style="mask-type:alpha" maskUnits="userSpaceOnUse" x="0" y="0" width="29" height="30">
<rect x="0.142822" y="0.714355" width="28.5714" height="28.5714" fill="#FFF"/>
</mask>
<g mask="url(#mask0_14_391)">
<path d="M21.5725 22.1428C22.0685 22.1428 22.4901 21.9692 22.8374 21.622C23.1846 21.2747 23.3582 20.8531 23.3582 20.3571C23.3582 19.861 23.1846 19.4394 22.8374 19.0922C22.4901 18.745 22.0685 18.5714 21.5725 18.5714C21.0764 18.5714 20.6548 18.745 20.3076 19.0922C19.9604 19.4394 19.7868 19.861 19.7868 20.3571C19.7868 20.8531 19.9604 21.2747 20.3076 21.622C20.6548 21.9692 21.0764 22.1428 21.5725 22.1428ZM21.5725 25.7142C22.1677 25.7142 22.7233 25.5753 23.2391 25.2975C23.755 25.0198 24.1816 24.6329 24.5189 24.1368C24.0626 23.8591 23.5864 23.6557 23.0903 23.5267C22.5943 23.3977 22.0883 23.3333 21.5725 23.3333C21.0566 23.3333 20.5506 23.3977 20.0546 23.5267C19.5586 23.6557 19.0824 23.8591 18.626 24.1368C18.9633 24.6329 19.3899 25.0198 19.9058 25.2975C20.4217 25.5753 20.9772 25.7142 21.5725 25.7142ZM6.09628 25.7142C5.44152 25.7142 4.88101 25.4811 4.41474 25.0148C3.94847 24.5485 3.71533 23.988 3.71533 23.3333V6.6666C3.71533 6.01183 3.94847 5.45132 4.41474 4.98505C4.88101 4.51878 5.44152 4.28564 6.09628 4.28564H22.763C23.4177 4.28564 23.9782 4.51878 24.4445 4.98505C24.9108 5.45132 25.1439 6.01183 25.1439 6.6666V14.6428C24.7669 14.4642 24.38 14.3104 23.9832 14.1815C23.5864 14.0525 23.1796 13.9583 22.763 13.8987V6.6666H6.09628V23.3333H13.2987C13.3582 23.7698 13.4524 24.1864 13.5814 24.5833C13.7104 24.9801 13.8641 25.3571 14.0427 25.7142H6.09628ZM6.09628 23.3333V6.6666V13.8987V13.8095V23.3333ZM8.47724 20.9523H13.3284C13.388 20.5356 13.4822 20.1289 13.6112 19.7321C13.7401 19.3352 13.884 18.9483 14.0427 18.5714H8.47724V20.9523ZM8.47724 16.1904H15.7391C16.3741 15.5952 17.0834 15.0991 17.8671 14.7023C18.6508 14.3055 19.4891 14.0376 20.382 13.8987V13.8095H8.47724V16.1904ZM8.47724 11.4285H20.382V9.04755H8.47724V11.4285ZM21.5725 28.0952C19.9256 28.0952 18.5219 27.5148 17.3612 26.3541C16.2005 25.1934 15.6201 23.7896 15.6201 22.1428C15.6201 20.496 16.2005 19.0922 17.3612 17.9315C18.5219 16.7708 19.9256 16.1904 21.5725 16.1904C23.2193 16.1904 24.6231 16.7708 25.7838 17.9315C26.9445 19.0922 27.5249 20.496 27.5249 22.1428C27.5249 23.7896 26.9445 25.1934 25.7838 26.3541C24.6231 27.5148 23.2193 28.0952 21.5725 28.0952Z" fill="#FFF" fill-opacity="1"/>
</g>
</svg>
