<svg width="61" height="61" viewBox="0 0 61 61" fill="none" xmlns="http://www.w3.org/2000/svg">
<mask id="mask0_14_370" style="mask-type:alpha" maskUnits="userSpaceOnUse" x="17" y="17" width="27" height="27">
<rect x="17.9767" y="17.2095" width="25.814" height="25.814" fill="#D9D9D9"/>
</mask>
<g mask="url(#mask0_14_370)">
<path d="M20.1291 40.873C19.3897 40.873 18.7567 40.6097 18.2301 40.0831C17.7035 39.5565 17.4402 38.9235 17.4402 38.184V22.0503C17.4402 21.3108 17.7035 20.6778 18.2301 20.1512C18.7567 19.6246 19.3897 19.3613 20.1291 19.3613H41.6408C42.3802 19.3613 43.0133 19.6246 43.5398 20.1512C44.0664 20.6778 44.3297 21.3108 44.3297 22.0503V38.184C44.3297 38.9235 44.0664 39.5565 43.5398 40.0831C43.0133 40.6097 42.3802 40.873 41.6408 40.873H20.1291ZM30.885 31.4616L20.1291 24.7392V38.184H41.6408V24.7392L30.885 31.4616ZM30.885 28.7727L41.6408 22.0503H20.1291L30.885 28.7727ZM20.1291 24.7392V22.0503V38.184V24.7392Z" fill="#222222"/>
</g>
</svg>
