<svg width="62" height="61" viewBox="0 0 62 61" fill="none" xmlns="http://www.w3.org/2000/svg">
<rect x="1.38367" y="0.5" width="59.2326" height="59.2326" rx="29.6163" stroke="#222222"/>
<g clip-path="url(#clip0_14_366)">
<path d="M31 19.5337C34.4486 19.5337 34.857 19.5489 36.2132 19.6094C37.4736 19.6648 38.1543 19.8766 38.6081 20.053C39.208 20.285 39.6416 20.5673 40.0903 21.016C40.5441 21.4698 40.8214 21.8983 41.0533 22.4983C41.2298 22.9521 41.4415 23.6378 41.497 24.8932C41.5575 26.2544 41.5726 26.6628 41.5726 30.1064C41.5726 33.5549 41.5575 33.9633 41.497 35.3196C41.4415 36.58 41.2298 37.2607 41.0533 37.7144C40.8214 38.3144 40.5391 38.748 40.0903 39.1967C39.6366 39.6505 39.208 39.9278 38.6081 40.1597C38.1543 40.3362 37.4686 40.5479 36.2132 40.6034C34.8519 40.6639 34.4435 40.679 31 40.679C27.5514 40.679 27.143 40.6639 25.7868 40.6034C24.5263 40.5479 23.8457 40.3362 23.3919 40.1597C22.792 39.9278 22.3584 39.6454 21.9097 39.1967C21.4559 38.7429 21.1786 38.3144 20.9467 37.7144C20.7702 37.2607 20.5585 36.575 20.503 35.3196C20.4425 33.9583 20.4274 33.5499 20.4274 30.1064C20.4274 26.6578 20.4425 26.2494 20.503 24.8932C20.5585 23.6327 20.7702 22.9521 20.9467 22.4983C21.1786 21.8983 21.4609 21.4647 21.9097 21.016C22.3634 20.5623 22.792 20.285 23.3919 20.053C23.8457 19.8766 24.5314 19.6648 25.7868 19.6094C27.143 19.5489 27.5514 19.5337 31 19.5337ZM31 17.2095C27.496 17.2095 27.0573 17.2246 25.6809 17.2851C24.3095 17.3456 23.3667 17.5674 22.55 17.8851C21.6979 18.2178 20.9769 18.6565 20.261 19.3774C19.54 20.0934 19.1014 20.8144 18.7686 21.6614C18.451 22.4832 18.2291 23.421 18.1686 24.7923C18.1081 26.1738 18.093 26.6124 18.093 30.1164C18.093 33.6205 18.1081 34.0591 18.1686 35.4355C18.2291 36.8069 18.451 37.7497 18.7686 38.5665C19.1014 39.4185 19.54 40.1395 20.261 40.8555C20.9769 41.5714 21.6979 42.0151 22.5449 42.3428C23.3667 42.6604 24.3045 42.8823 25.6759 42.9428C27.0523 43.0033 27.4909 43.0184 30.995 43.0184C34.499 43.0184 34.9376 43.0033 36.314 42.9428C37.6854 42.8823 38.6282 42.6604 39.445 42.3428C40.292 42.0151 41.013 41.5714 41.7289 40.8555C42.4449 40.1395 42.8885 39.4185 43.2162 38.5715C43.5339 37.7497 43.7557 36.8119 43.8162 35.4406C43.8767 34.0642 43.8918 33.6255 43.8918 30.1215C43.8918 26.6174 43.8767 26.1788 43.8162 24.8024C43.7557 23.431 43.5339 22.4882 43.2162 21.6715C42.8986 20.8144 42.46 20.0934 41.739 19.3774C41.0231 18.6615 40.3021 18.2178 39.4551 17.8901C38.6333 17.5725 37.6955 17.3506 36.3241 17.2901C34.9427 17.2246 34.504 17.2095 31 17.2095Z" fill="#222222"/>
<path d="M30.9999 23.4863C27.3396 23.4863 24.37 26.4559 24.37 30.1163C24.37 33.7766 27.3396 36.7462 30.9999 36.7462C34.6603 36.7462 37.6299 33.7766 37.6299 30.1163C37.6299 26.4559 34.6603 23.4863 30.9999 23.4863ZM30.9999 34.4169C28.6253 34.4169 26.6993 32.491 26.6993 30.1163C26.6993 27.7416 28.6253 25.8156 30.9999 25.8156C33.3746 25.8156 35.3006 27.7416 35.3006 30.1163C35.3006 32.491 33.3746 34.4169 30.9999 34.4169Z" fill="#222222"/>
<path d="M39.4399 23.2241C39.4399 24.0812 38.7441 24.7719 37.8921 24.7719C37.035 24.7719 36.3442 24.0762 36.3442 23.2241C36.3442 22.367 37.04 21.6763 37.8921 21.6763C38.7441 21.6763 39.4399 22.372 39.4399 23.2241Z" fill="#222222"/>
</g>
<defs>
<clipPath id="clip0_14_366">
<rect width="25.814" height="25.814" fill="white" transform="translate(18.093 17.2095)"/>
</clipPath>
</defs>
</svg>
