<svg width="61" height="61" viewBox="0 0 61 61" fill="none" xmlns="http://www.w3.org/2000/svg">
<g clip-path="url(#clip0_14_362)">
<path d="M41.1125 17.2095H19.1151C18.0614 17.2095 17.2094 18.0414 17.2094 19.0699V41.158C17.2094 42.1865 18.0614 43.0234 19.1151 43.0234H41.1125C42.1662 43.0234 43.0233 42.1865 43.0233 41.163V19.0699C43.0233 18.0414 42.1662 17.2095 41.1125 17.2095ZM24.8678 39.2068H21.0361V26.8847H24.8678V39.2068ZM22.9519 25.2057C21.7218 25.2057 20.7285 24.2125 20.7285 22.9874C20.7285 21.7622 21.7218 20.769 22.9519 20.769C24.1771 20.769 25.1703 21.7622 25.1703 22.9874C25.1703 24.2075 24.1771 25.2057 22.9519 25.2057ZM39.2067 39.2068H35.38V33.2171C35.38 31.7903 35.3547 29.9501 33.3884 29.9501C31.3969 29.9501 31.0944 31.508 31.0944 33.1163V39.2068H27.2728V26.8847H30.9432V28.5686H30.9936C31.5028 27.6006 32.7532 26.5771 34.6136 26.5771C38.4907 26.5771 39.2067 29.1283 39.2067 32.4458V39.2068Z" fill="#222222"/>
</g>
<defs>
<clipPath id="clip0_14_362">
<rect width="25.814" height="25.814" fill="white" transform="translate(17.2094 17.2095)"/>
</clipPath>
</defs>
</svg>
