<svg width="61" height="61" viewBox="0 0 61 61" fill="none" xmlns="http://www.w3.org/2000/svg">
<rect x="0.825562" y="0.5" width="59.2326" height="59.2326" rx="29.6163" stroke="#222222"/>
<g clip-path="url(#clip0_14_368)">
<path d="M43.3489 29.9308C43.3489 33.3504 42.7758 36.1242 42.0686 36.1242C41.3614 36.1242 40.7886 33.3511 40.7886 29.9308C40.7886 26.5104 41.3617 23.7373 42.0686 23.7373C42.7755 23.7373 43.3489 26.5102 43.3489 29.9308Z" fill="#222222"/>
<path d="M40.0821 29.9311C40.0821 33.7487 38.4523 36.8447 36.4419 36.8447C34.4314 36.8447 32.8016 33.7487 32.8016 29.9311C32.8016 26.1136 34.4312 23.0176 36.4416 23.0176C38.4521 23.0176 40.0818 26.1126 40.0818 29.9311" fill="#222222"/>
<path d="M32.0955 29.9311C32.0955 33.9869 28.836 37.2747 24.8153 37.2747C20.7947 37.2747 17.5349 33.9861 17.5349 29.9311C17.5349 25.8762 20.7945 22.5874 24.8153 22.5874C28.8362 22.5874 32.0955 25.8754 32.0955 29.9311Z" fill="#222222"/>
</g>
<defs>
<clipPath id="clip0_14_368">
<rect width="25.814" height="25.814" fill="white" transform="translate(17.5349 17.2095)"/>
</clipPath>
</defs>
</svg>
