<svg width="246" height="148" viewBox="0 0 246 148" fill="none" xmlns="http://www.w3.org/2000/svg">
<g clip-path="url(#clip0_56_649)">
<g style="mix-blend-mode:multiply">
<path d="M5.89418 103.655C5.10688 100.644 5.96302 97.6023 6.1265 94.6208C6.69869 94.3412 7.22356 94.0917 7.74413 93.8335C9.66721 92.8828 11.6462 92.0266 13.4962 90.9511C15.0665 90.0347 16.4518 88.8 17.9919 87.832C19.1019 87.1307 20.3366 86.6231 21.5068 86.0208C23.0126 85.2464 24.5614 84.5408 26.0026 83.6632C28.7775 81.9681 31.5395 80.2214 34.2112 78.393C35.7428 77.326 37.5067 76.7754 39.0856 75.8117C40.7505 74.7964 42.4929 73.9058 44.2482 73.0497C46.0035 72.1935 47.9352 71.6773 49.8626 72.5678C51.484 73.2709 52.7881 74.5489 53.5237 76.1558C54.5735 78.5651 56.3718 80.3075 58.2303 82.0068C60.4089 83.9954 62.4527 86.1268 64.348 88.387C65.6688 89.953 67.3596 91.2221 68.8869 92.5945C70.4141 93.9669 72.0404 95.335 73.6193 96.7117C74.8497 97.8002 76.1188 98.8628 77.2718 100.024C78.0951 100.943 78.8706 101.904 79.595 102.903C79.6434 102.972 79.6676 103.055 79.6638 103.139C79.6208 103.914 79.5778 104.688 79.5219 105.462C79.4444 106.516 79.3541 107.566 79.2594 108.616C79.1519 109.872 79.0486 111.128 78.911 112.38C78.8292 113.146 78.442 113.331 77.6805 113.206C76.4974 113.017 75.3014 112.922 74.1183 112.755C72.7416 112.561 71.3778 112.324 70.0011 112.126C68.6244 111.929 67.2649 111.855 65.8968 111.696C65.6301 111.67 65.3677 111.627 65.1052 111.584C61.827 111.047 58.553 110.47 55.2661 109.98C53.4506 109.709 51.6136 109.623 49.7937 109.395C47.4017 109.098 45.014 108.741 42.6263 108.418C39.9675 108.052 37.3088 107.708 34.6543 107.334C32.9593 107.097 31.2771 106.792 29.582 106.568C28.6528 106.448 27.7063 106.465 26.777 106.353C26.0586 106.263 25.3573 106.009 24.6259 105.923C23.2449 105.768 21.851 105.72 20.47 105.566C19.5752 105.462 18.6975 105.217 17.8069 105.084C16.9164 104.95 16.0646 104.894 15.1998 104.787C13.8403 104.619 12.4851 104.426 11.13 104.258C9.37466 104.064 7.62797 103.862 5.89418 103.655Z" fill="#91CDA1"/>
<path d="M5.89418 103.655C5.10688 100.644 5.96302 97.6023 6.1265 94.6208C6.69869 94.3412 7.22356 94.0917 7.74413 93.8335C9.66721 92.8828 11.6462 92.0266 13.4962 90.9511C15.0665 90.0347 16.4518 88.8 17.9919 87.832C19.1019 87.1307 20.3366 86.6231 21.5068 86.0208C23.0126 85.2464 24.5614 84.5408 26.0026 83.6632C28.7775 81.9681 31.5395 80.2214 34.2112 78.393C35.7428 77.326 37.5067 76.7754 39.0856 75.8117C40.7505 74.7964 42.4929 73.9058 44.2482 73.0497C46.0035 72.1935 47.9352 71.6773 49.8626 72.5678C51.484 73.2709 52.7881 74.5489 53.5237 76.1558C54.5735 78.5651 56.3718 80.3075 58.2303 82.0068C60.4089 83.9954 62.4527 86.1268 64.348 88.387C65.6688 89.953 67.3596 91.2221 68.8869 92.5945C70.4141 93.9669 72.0404 95.335 73.6193 96.7117C74.8497 97.8002 76.1188 98.8628 77.2718 100.024C78.0951 100.943 78.8706 101.904 79.595 102.903C79.6434 102.972 79.6676 103.055 79.6638 103.139C79.6208 103.914 79.5778 104.688 79.5219 105.462C79.4444 106.516 79.3541 107.566 79.2594 108.616C79.1519 109.872 79.0486 111.128 78.911 112.38C78.8292 113.146 78.442 113.331 77.6805 113.206C76.4974 113.017 75.3014 112.922 74.1183 112.755C72.7416 112.561 71.3778 112.324 70.0011 112.126C68.6244 111.929 67.2649 111.855 65.8968 111.696C65.6301 111.67 65.3677 111.627 65.1052 111.584C61.827 111.047 58.553 110.47 55.2661 109.98C53.4506 109.709 51.6136 109.623 49.7937 109.395C47.4017 109.098 45.014 108.741 42.6263 108.418C39.9675 108.052 37.3088 107.708 34.6543 107.334C32.9593 107.097 31.2771 106.792 29.582 106.568C28.6528 106.448 27.7063 106.465 26.777 106.353C26.0586 106.263 25.3573 106.009 24.6259 105.923C23.2449 105.768 21.851 105.72 20.47 105.566C19.5752 105.462 18.6975 105.217 17.8069 105.084C16.9164 104.95 16.0646 104.894 15.1998 104.787C13.8403 104.619 12.4851 104.426 11.13 104.258C9.37466 104.064 7.62797 103.862 5.89418 103.655Z" stroke="#91CDA1" stroke-width="0.430219" stroke-miterlimit="10"/>
</g>
<path d="M88.8619 54.3351C88.4317 56.0044 87.9714 57.6349 87.6616 59.2956C87.3046 61.2143 87.1153 63.1675 86.8313 65.1035C86.5 67.3837 86.1817 69.6681 85.7902 71.9354C85.6095 72.998 85.2051 74.0219 85.0244 75.0846C84.8308 76.2376 84.8265 77.425 84.6587 78.5823C84.3705 80.5957 84.0048 82.6005 83.7036 84.6053C83.424 86.4467 83.1917 88.2923 82.9378 90.138C82.7442 91.5663 82.5076 92.9903 82.3484 94.4401C81.9698 97.585 81.6171 100.734 81.2342 103.879C80.8857 106.779 80.4211 109.67 80.1973 112.574C80.1371 113.365 80.1973 114.105 79.8316 114.85C79.737 115.048 80.0037 115.418 80.0898 115.68C79.4315 116.945 78.2872 116.596 77.289 116.463C75.224 116.188 73.1762 115.792 71.1154 115.478C68.3147 115.048 65.5226 114.617 62.7046 114.252C60.5062 113.972 58.2863 113.882 56.0879 113.606C53.3904 113.267 50.7058 112.811 48.0126 112.428C47.1522 112.303 46.2315 112.273 45.3496 112.148C43.0952 111.834 40.8495 111.468 38.5951 111.158C36.5817 110.879 34.5554 110.659 32.542 110.388C30.8211 110.156 29.1002 109.82 27.3793 109.661C25.8004 109.515 24.2 109.635 22.6469 109.468C21.0938 109.3 19.5537 108.883 18.0006 108.642C16.2281 108.362 14.447 108.156 12.6701 107.923C10.4416 107.631 8.21738 107.334 5.98885 107.063C4.98213 106.938 3.96682 106.856 2.9515 106.813C2.38791 106.787 1.92758 106.194 1.23062 106.671C0.856334 106.925 -0.0600325 105.811 0.0389179 105.273C0.202401 104.146 0.400302 103.019 0.546576 101.892C1.00261 98.3422 1.40701 94.7886 1.89746 91.2393C2.13408 89.5184 2.54709 87.7976 2.7579 86.0767C3.02464 84.0418 3.11498 81.981 3.39032 79.9461C3.71729 77.4981 4.19914 75.0674 4.54331 72.6323C4.74121 71.1997 4.74551 69.7413 4.93911 68.3086C5.16283 66.3554 5.53712 64.4625 5.83827 62.5265C5.95873 61.7435 6.01036 60.9519 6.12222 60.1689C6.2943 58.9514 6.4836 57.7382 6.6772 56.5249C6.98696 54.5717 7.29958 52.6286 7.61508 50.6955C7.93344 48.781 8.24319 46.8665 8.59597 44.9607C8.73795 44.1949 9.88663 43.67 10.6481 43.8722C11.2539 43.9605 11.8645 44.0122 12.4766 44.0271C17.1272 44.6036 21.7736 45.2532 26.4329 45.748C29.1346 46.0362 31.8708 46.0018 34.5812 46.2513C37.6702 46.5353 40.7505 46.9612 43.8352 47.3484C45.1044 47.5075 46.3692 47.727 47.6384 47.9206C49.3592 48.1873 51.0801 48.4755 52.801 48.7165C54.9521 49.0176 57.1032 49.2628 59.2543 49.5769C62.1453 49.9727 65.0364 50.39 67.9318 50.7987L76.9019 52.0894C78.9239 52.3733 80.9588 52.5712 82.9636 52.9498C84.8652 53.2983 86.741 53.8103 88.6296 54.262C88.7099 54.2762 88.788 54.3008 88.8619 54.3351ZM4.81435 92.8053L5.08109 92.986C6.04047 92.3923 7.00416 91.8029 7.95495 91.1963C9.40479 90.2713 10.8546 89.3464 12.2873 88.3956C14.2964 87.0662 16.2152 85.5862 18.4609 84.6311C18.8911 84.4419 19.2697 84.0504 19.7042 83.8223C21.0293 83.1254 22.3759 82.4628 23.7096 81.7788C24.1546 81.5701 24.5857 81.333 25.0002 81.0689C25.9854 80.3978 26.9276 79.6535 27.9343 79.0125C28.941 78.3715 29.9951 77.8552 31.0104 77.2529C32.1247 76.5947 33.2088 75.8848 34.3231 75.2266C35.7041 74.4134 37.3991 74.2801 38.6769 73.2346C38.7275 73.2044 38.7827 73.1826 38.8404 73.1701C39.9331 72.6969 40.9915 72.1376 42.1186 71.7676C43.277 71.3837 44.4679 71.1058 45.6766 70.9373C46.3452 70.9059 47.014 70.9948 47.6513 71.1997C48.701 71.4492 49.94 71.4923 50.7273 72.1032C52.7121 73.7018 54.6052 75.411 56.3976 77.2228C57.3957 78.2295 58.0798 79.5201 59.2586 80.3806C59.4233 80.5504 59.5482 80.7546 59.6243 80.9786C59.6808 81.1682 59.7572 81.3514 59.8523 81.525C60.6439 82.5446 61.4613 83.5427 62.2529 84.5623C63.3155 85.939 64.2147 87.4749 65.4408 88.6838C67.5188 90.7446 69.7989 92.6074 71.9888 94.552L78.3689 100.235C78.4119 100.011 78.4765 99.6501 78.5582 99.2887C78.6977 98.798 78.8083 98.2995 78.8895 97.7959C78.9669 96.9957 78.8895 96.1782 79.0099 95.3909C79.1734 94.4186 79.5391 93.4851 79.7155 92.5171C79.9779 91.0801 80.1457 89.626 80.3651 88.1848C80.5845 86.7435 80.7609 85.3754 81.0061 83.9815C81.2514 82.5876 81.5611 81.1335 81.8666 79.718C82.1936 78.1391 82.6195 76.5774 82.8647 74.9856C83.3207 72.0386 83.6735 69.083 84.065 66.1274C84.2629 64.6245 84.4551 63.1202 84.6415 61.6144C84.7448 60.754 84.8007 59.8634 84.9211 58.9901C85.0416 58.1167 85.2223 57.1832 85.3858 56.2367C85.1276 56.2066 84.9556 56.1722 84.7878 56.1636C83.3896 56.1033 81.987 56.099 80.5931 55.9786C78.7776 55.8194 76.9707 55.5871 75.1638 55.3504C73.4687 55.1239 71.7779 54.8686 70.0915 54.5847C69.0331 54.4083 67.992 54.0899 66.9251 53.9651C65.1397 53.75 63.3371 53.6769 61.5516 53.4747C59.6415 53.2596 57.7399 52.9412 55.834 52.696C52.7192 52.2959 49.6045 51.9173 46.4897 51.5301C44.9667 51.3408 43.4394 51.1816 41.925 50.9579C41.3529 50.8719 40.8151 50.5664 40.2472 50.489C39.4384 50.3857 38.5994 50.489 37.7949 50.3513C36.3322 50.1276 34.891 49.7533 33.4239 49.5425C32.0902 49.3446 30.7307 49.3403 29.3971 49.1338C28.2742 48.9574 27.1857 48.4884 26.0586 48.368C24.0667 48.1572 22.1522 47.5075 20.1129 47.5075C18.7018 47.5075 17.2864 47.2021 15.871 47.0429C15.6413 47.0007 15.4043 47.0292 15.1912 47.1247C14.3824 47.6409 13.5951 47.301 12.7949 47.1247C12.1539 46.9956 11.5043 46.8966 10.7944 46.7762C10.6395 48.2776 10.4674 49.7146 10.3642 51.1558C10.2265 52.9111 10.2695 54.6922 9.98988 56.4217C9.6371 58.5728 9.50804 60.7239 9.35746 62.9008C9.21549 64.8884 9.06061 66.876 8.81539 68.8507C8.58737 70.6705 8.23889 72.4775 7.92483 74.2844C7.39136 77.3303 6.84785 80.3749 6.2943 83.4179C5.95013 85.3066 5.54142 87.1867 5.23166 89.0839C5.01225 90.3316 4.94341 91.5663 4.81435 92.8053ZM4.27658 104.391C5.99745 104.598 7.76135 104.8 9.50804 105.015C10.8675 105.183 12.2184 105.376 13.5779 105.544C14.4383 105.652 15.3203 105.708 16.185 105.837C17.0498 105.966 17.9532 106.215 18.8481 106.318C20.2291 106.478 21.623 106.525 23.0083 106.676C23.7268 106.757 24.428 107.007 25.1594 107.106C26.0887 107.222 27.0352 107.2 27.9644 107.325C29.6595 107.549 31.346 107.85 33.0367 108.091C35.6912 108.465 38.3499 108.809 41.0087 109.171C43.4007 109.498 45.7841 109.851 48.1804 110.152C50.0003 110.375 51.8373 110.466 53.6485 110.737C56.9354 111.223 60.2094 111.804 63.4876 112.342C63.7501 112.385 64.0168 112.428 64.2792 112.453C65.6473 112.587 67.0197 112.69 68.3878 112.862C69.7559 113.034 71.1283 113.292 72.5007 113.49C73.6881 113.658 74.8841 113.748 76.0629 113.942C76.8244 114.067 77.2116 113.877 77.2977 113.112C77.4353 111.86 77.5343 110.603 77.6461 109.347C77.7365 108.298 77.8268 107.248 77.9043 106.198C77.9645 105.424 78.0032 104.649 78.0462 103.875C78.0507 103.79 78.0264 103.707 77.9774 103.638C77.2554 102.638 76.4798 101.677 75.6542 100.76C74.5055 99.5899 73.2364 98.5358 72.0017 97.4474C70.4357 96.0664 68.8396 94.7198 67.2692 93.3302C65.699 91.9406 64.0512 90.6886 62.7304 89.1226C60.8346 86.8602 58.7924 84.7246 56.617 82.7296C54.7542 81.0302 52.9559 79.2878 51.9061 76.8829C51.1722 75.2763 49.8696 73.9982 48.2493 73.2949C46.3176 72.4043 44.4203 72.9077 42.6306 73.7767C40.8409 74.6458 39.1329 75.5234 37.468 76.5344C35.8934 77.4938 34.1252 78.0402 32.5936 79.1157C29.9262 80.97 27.1599 82.6909 24.385 84.3859C22.9438 85.2464 21.3993 85.9691 19.8935 86.7478C18.719 87.3501 17.4843 87.8535 16.3743 88.5547C14.8342 89.5313 13.4488 90.7618 11.8785 91.6738C10.0286 92.7494 8.0496 93.6098 6.12652 94.5606L4.5132 95.3479C4.34541 98.3379 3.48927 101.354 4.27658 104.391Z" fill="black"/>
<path d="M4.81421 92.8052C4.94327 91.5747 5.01211 90.3314 5.21001 89.1139C5.51977 87.2166 5.92848 85.3366 6.27265 83.4479C6.82907 80.4077 7.37258 77.3632 7.90318 74.3144C8.21724 72.5074 8.56572 70.7005 8.79374 68.8807C9.03896 66.906 9.19384 64.9184 9.33581 62.9308C9.48639 60.7797 9.61545 58.6028 9.96823 56.4517C10.2479 54.7308 10.2049 52.9411 10.3425 51.1858C10.4587 49.7445 10.6308 48.3076 10.7727 46.8062C11.4869 46.9266 12.1322 47.0256 12.7733 47.1546C13.5735 47.3181 14.3608 47.658 15.1696 47.1546C15.3827 47.0592 15.6197 47.0307 15.8493 47.0729C17.2647 47.2321 18.6802 47.559 20.0913 47.5375C22.1305 47.5074 24.045 48.1742 26.0369 48.398C27.1641 48.5184 28.2525 48.9874 29.3754 49.1638C30.7091 49.3703 32.0686 49.3746 33.4023 49.5725C34.8693 49.7833 36.3105 50.1576 37.7733 50.3813C38.5778 50.506 39.4167 50.4157 40.2255 50.5189C40.7934 50.5964 41.3312 50.9018 41.9034 50.9879C43.4178 51.2116 44.945 51.3708 46.468 51.5601C49.5828 51.9473 52.6976 52.3259 55.8124 52.726C57.7182 52.9712 59.6198 53.2896 61.53 53.5047C63.3154 53.7069 65.118 53.78 66.9034 53.9951C67.9704 54.1199 69.0115 54.4253 70.0698 54.6146C71.7563 54.9014 73.4471 55.1567 75.1421 55.3804C76.949 55.617 78.756 55.8494 80.5715 56.0085C81.9654 56.129 83.3679 56.1333 84.7661 56.1935C84.9382 56.1935 85.106 56.2366 85.3641 56.2667C85.2006 57.2132 85.0242 58.1123 84.8995 59.0201C84.7747 59.9278 84.7231 60.7711 84.6198 61.6444C84.4334 63.1502 84.2412 64.6545 84.0434 66.1574C83.6519 69.113 83.2991 72.0686 82.843 75.0156C82.5978 76.6031 82.1719 78.1648 81.8449 79.748C81.5481 81.1634 81.2469 82.5832 80.9845 84.0115C80.7221 85.4398 80.5543 86.8122 80.3435 88.2147C80.1327 89.6173 79.9563 91.1101 79.6938 92.547C79.5174 93.515 79.1518 94.4486 78.9883 95.4209C78.8592 96.2082 78.9453 97.0256 78.8678 97.8258C78.7866 98.3295 78.676 98.828 78.5365 99.3187C78.4548 99.6801 78.3903 100.041 78.3473 100.265L71.9671 94.582C69.7773 92.6374 67.4971 90.7745 65.4192 88.7138C64.193 87.5049 63.2939 85.969 62.2312 84.5923C61.4396 83.5727 60.6222 82.5746 59.8306 81.555C59.7356 81.3814 59.6591 81.1982 59.6026 81.0086C59.5265 80.7846 59.4016 80.5803 59.2369 80.4106C58.0452 79.5501 57.3741 78.2595 56.3588 77.2528C54.5664 75.441 52.6733 73.7318 50.6885 72.1332C49.9012 71.5222 48.6621 71.4792 47.6124 71.2297C46.9752 71.0247 46.3063 70.9359 45.6377 70.9673C44.437 71.13 43.2534 71.4007 42.1013 71.7761C40.9784 72.1461 39.9158 72.7053 38.823 73.1786C38.7654 73.1911 38.7102 73.2129 38.6595 73.2431C37.3689 74.2885 35.6867 74.4219 34.3057 75.235C33.1915 75.8933 32.1073 76.6031 30.993 77.2614C29.9777 77.8637 28.9108 78.3885 27.917 79.021C26.9232 79.6534 25.9681 80.3805 24.9829 81.0688C24.5683 81.3328 24.1372 81.57 23.6922 81.7787C22.3714 82.4627 21.0292 83.1252 19.7041 83.8222C19.2739 84.0502 18.9082 84.4417 18.4608 84.631C16.215 85.5861 14.2962 87.0661 12.2871 88.3954C10.8545 89.3462 9.40465 90.2712 7.95481 91.1962C7.00402 91.8028 6.04033 92.3922 5.08095 92.9859L4.81421 92.8052ZM65.2643 67.5986C64.5329 69.8487 66.2882 72.0256 68.4049 72.5806C69.4073 72.8387 70.4312 73.0108 71.4164 73.3636C72.0041 73.5867 72.6447 73.6305 73.2573 73.4896C73.8699 73.3487 74.427 73.0294 74.8582 72.572C75.8054 71.6529 76.3971 70.4285 76.5285 69.1152C76.66 67.802 76.3228 66.4845 75.5766 65.3959C75.0962 64.6202 74.441 63.9676 73.6633 63.4903C72.8857 63.013 72.0072 62.7241 71.0981 62.6468C69.4718 62.4747 66.9809 63.5417 66.2538 64.9485C65.8697 65.8107 65.5392 66.6957 65.2643 67.5986Z" fill="white"/>
<path d="M65.2645 67.5985C65.5395 66.6956 65.8699 65.8105 66.254 64.9483C66.9811 63.5415 69.4721 62.4746 71.0983 62.6467C72.0075 62.7239 72.886 63.0128 73.6636 63.4901C74.4412 63.9675 75.0964 64.62 75.5769 65.3958C76.3231 66.4844 76.6603 67.8018 76.5288 69.1151C76.3973 70.4283 75.8056 71.6527 74.8584 72.5718C74.4272 73.0292 73.8702 73.3485 73.2576 73.4894C72.645 73.6303 72.0043 73.5865 71.4167 73.3634C70.4444 73.0321 69.4204 72.8385 68.4051 72.5804C66.2884 72.0254 64.5332 69.8485 65.2645 67.5985ZM67.5404 67.3619C66.9553 68.8289 67.5404 70.283 70.0959 70.9886C71.5414 71.393 72.9827 70.4465 73.3871 68.6052C73.8775 66.3767 73.2494 65.3785 70.5089 64.6859C69.2656 64.3675 68.0653 65.4689 67.5447 67.3619H67.5404Z" fill="black"/>
<path d="M67.5448 67.3621C68.0696 65.4691 69.2656 64.3506 70.5133 64.6861C73.2538 65.3788 73.8819 66.3769 73.3914 68.6054C72.987 70.4468 71.5458 71.3932 70.1003 70.9888C67.5448 70.2833 66.9554 68.8291 67.5448 67.3621Z" fill="white"/>
</g>
<g clip-path="url(#clip1_56_649)">
<path d="M245.195 15.5443C244.964 18.7613 244.767 21.9784 244.482 25.1905C244.315 27.045 243.946 28.8847 243.754 30.7392C243.513 33.1249 243.331 35.5205 243.173 37.9161C242.996 40.592 242.878 43.2729 242.731 45.9538C242.613 48.1083 242.534 50.2678 242.362 52.4174C242.126 55.3688 241.811 58.3203 241.535 61.2323C241.26 64.1444 241.043 67.0024 240.738 69.8849C240.566 71.523 240.222 73.1463 240.065 74.804C239.863 76.9438 239.819 79.1032 239.607 81.243C239.282 84.5437 238.884 87.8395 238.495 91.1401C238.407 91.8878 238.559 92.7585 237.639 93.1717C237.089 93.4226 236.523 93.9391 235.997 93.8997C232.858 93.6685 229.73 93.2602 226.591 93.0045C224.196 92.8077 221.79 92.7634 219.39 92.6158C215.755 92.3945 212.124 92.1239 208.494 91.9026C206.236 91.7501 203.978 91.6419 201.73 91.4107C199.355 91.1451 196.993 90.7417 194.622 90.3875C193.993 90.2941 193.373 90.1366 192.743 90.0776C191.268 89.935 189.792 89.9054 188.346 89.7087C184.942 89.2463 181.553 88.7249 178.153 88.2084C175.32 87.7853 172.497 87.259 169.648 86.9639C165.841 86.5654 162.009 86.3588 158.187 86.0538C154.286 85.7439 150.381 85.4832 146.49 85.07C143.479 84.7601 140.488 84.2682 137.488 83.8501C136.72 83.7419 134.905 82.0989 134.969 80.9626C135.102 78.6605 135.279 76.3633 135.461 74.076C135.623 72.2018 135.855 70.3375 136.022 68.4683C136.415 64.1001 136.843 59.7419 137.148 55.3688C137.453 50.9958 137.64 46.5933 137.837 42.2055C137.95 39.746 137.999 37.2864 138.088 34.8269C138.24 30.7687 138.339 26.7105 138.58 22.6572C138.791 19.268 139.224 15.8935 139.48 12.5043C139.554 11.5205 139.259 10.4678 139.318 9.45448C139.45 7.19172 139.711 4.92896 139.893 2.6662C139.902 2.3366 139.827 2.01015 139.677 1.71682C139.185 0.772365 139.48 0.241108 140.538 0.186999C142.151 0.0357175 143.773 -0.0119311 145.393 0.0443467C147.852 0.255866 150.312 0.831394 152.771 1.02816C154.916 1.17573 157.105 0.983884 159.245 0.983884C160.75 0.983884 162.25 1.13146 163.751 1.24951C164.513 1.30854 165.266 1.45119 166.023 1.54957C167.115 1.69223 168.207 1.89883 169.309 1.95785C172.26 2.11526 175.251 2.16937 178.217 2.34646C180.106 2.45468 181.985 2.77934 183.874 2.89247C186.334 3.03513 188.852 3.03513 191.337 3.16302C193.034 3.25156 194.726 3.43849 196.418 3.5959C199.487 3.8812 202.552 4.16159 205.616 4.47149C209.02 4.8109 212.424 5.14048 215.819 5.54384C218.741 5.88817 221.653 6.31121 224.565 6.72933C227.354 7.12285 230.133 7.6 232.927 7.94925C234.432 8.13617 235.957 8.12634 237.472 8.2198C238.795 8.30342 240.119 8.40672 241.442 8.5051C242.249 8.56413 243.06 8.62808 243.867 8.67727C244.356 8.74889 244.806 8.98715 245.141 9.35187C245.475 9.71659 245.673 10.1854 245.702 10.6793C245.608 12.3026 245.451 13.921 245.323 15.5443H245.195ZM137.488 79.1672C138.206 79.2951 138.806 79.4476 139.411 79.4918C141.438 79.646 143.464 79.7788 145.491 79.8903C147.232 79.9887 149.008 79.8558 150.705 80.1657C153.617 80.7019 156.456 81.6415 159.363 82.1334C162.472 82.6941 165.635 82.9745 168.768 83.3926C170.14 83.5746 171.508 83.8058 172.875 83.9928C175.074 84.2928 177.273 84.6175 179.477 84.8438C181.577 85.0553 183.702 85.0651 185.798 85.3357C188.124 85.6259 190.417 86.2014 192.743 86.4572C197.721 87.0032 202.714 87.4164 207.702 87.8886C211.308 88.2281 214.918 88.5527 218.524 88.9167C220.206 89.0889 221.879 89.3545 223.561 89.5562C226.05 89.8513 228.543 90.1334 231.038 90.4023C232.342 90.5351 233.655 90.6138 234.973 90.7122C235.117 90.7429 235.265 90.7413 235.407 90.7075C235.55 90.6736 235.683 90.6083 235.797 90.5164C235.911 90.4244 236.003 90.3082 236.067 90.1761C236.13 90.044 236.163 89.8995 236.164 89.753C236.247 89.143 236.415 88.538 236.464 87.928C236.834 83.2647 237.193 78.6015 237.541 73.9382C237.538 73.8295 237.529 73.721 237.512 73.6136C237.512 72.3543 237.428 71.095 237.477 69.8358C237.576 67.0417 237.738 64.2526 237.871 61.4734C238.087 56.8052 238.21 52.1272 238.54 47.4738C238.776 44.1485 239.297 40.8429 239.661 37.5225C239.883 35.5107 240.04 33.4889 240.256 31.4721C240.64 27.8812 241.053 24.2952 241.442 20.7043C241.722 18.1514 241.998 15.5934 242.229 13.0355C242.194 12.6589 242.094 12.2912 241.934 11.9484C241.599 12.0567 241.265 12.16 240.95 12.2829C240.729 12.3616 240.497 12.583 240.301 12.5535C238.977 12.337 237.669 11.9927 236.341 11.855C235.259 11.7418 234.235 11.427 233.094 11.4123C230.281 11.3827 227.472 10.9204 224.663 10.6006C222.725 10.3793 220.846 9.85292 218.859 9.77422C216.242 9.67092 213.63 9.23804 211.023 8.88879C210.196 8.77565 209.37 8.22472 208.597 8.31326C206.138 8.59365 203.88 7.77217 201.524 7.51638C200.255 7.37864 199.01 7.02447 197.741 6.91133C194.032 6.59159 190.313 6.36532 186.599 6.06526C184.307 5.88325 182.025 5.61762 179.713 5.43562C176.565 5.18475 173.416 4.97323 170.268 4.76171C166.904 4.53052 163.529 4.33375 160.16 4.09272C156.967 3.86153 153.765 3.53687 150.582 3.34994C148.408 3.22697 146.219 3.24173 144.035 3.28108C143.835 3.33844 143.652 3.445 143.503 3.59106C143.355 3.73711 143.245 3.91802 143.184 4.11732C142.768 8.19356 142.392 12.2747 142.058 16.3608C141.88 18.6236 141.821 20.8962 141.698 23.1639C141.571 25.6234 141.428 28.1223 141.305 30.6014C141.187 32.8544 141.123 35.1122 140.965 37.3602C140.823 39.3524 140.513 41.32 140.38 43.3123C140.085 48.4527 139.888 53.6029 139.578 58.7384C139.342 62.4818 138.963 66.2153 138.595 69.9489C138.452 71.4836 138.196 73.0085 138.004 74.5433C137.812 76.078 137.675 77.6029 137.488 79.1672Z" fill="black"/>
<path d="M137.488 79.1673C137.675 77.6031 137.847 76.0683 138.039 74.5434C138.231 73.0185 138.487 71.4838 138.629 69.949C138.983 66.2155 139.362 62.4819 139.613 58.7385C139.938 53.603 140.105 48.4528 140.415 43.3124C140.528 41.3448 140.838 39.3476 140.981 37.3603C141.138 35.1123 141.202 32.8545 141.32 30.6016C141.443 28.1421 141.586 25.6432 141.713 23.164C141.836 20.8963 141.896 18.6237 142.073 16.3609C142.401 12.2749 142.776 8.19041 143.199 4.1076C143.26 3.90831 143.37 3.7274 143.518 3.58135C143.667 3.43529 143.85 3.32873 144.05 3.27137C146.234 3.23201 148.423 3.21726 150.597 3.34023C153.795 3.52716 156.992 3.83214 160.175 4.08301C163.544 4.32404 166.919 4.5208 170.283 4.752C173.431 4.96352 176.58 5.17504 179.728 5.42591C182.015 5.60791 184.298 5.87354 186.615 6.05555C190.328 6.35561 194.047 6.58188 197.756 6.90162C199.025 7.01476 200.27 7.39353 201.539 7.50666C203.895 7.76245 206.173 8.58393 208.613 8.30355C209.385 8.21501 210.211 8.76594 211.038 8.87908C213.645 9.22833 216.257 9.66121 218.874 9.76451C220.841 9.84321 222.74 10.3695 224.678 10.5909C227.487 10.9156 230.296 11.373 233.109 11.4025C234.251 11.4025 235.274 11.7321 236.356 11.8453C237.684 11.983 238.993 12.3372 240.316 12.5438C240.513 12.5733 240.744 12.3519 240.965 12.2732C241.295 12.1502 241.629 12.0469 241.949 11.9387C242.109 12.2815 242.209 12.6492 242.244 13.0258C242.013 15.5837 241.752 18.1416 241.457 20.6946C241.068 24.2855 240.655 27.8715 240.271 31.4624C240.055 33.4792 239.898 35.5009 239.676 37.5128C239.312 40.8332 238.791 44.1388 238.555 47.4641C238.225 52.1224 238.102 56.8102 237.886 61.4637C237.753 64.2577 237.591 67.0468 237.492 69.826C237.443 71.0853 237.492 72.3446 237.527 73.6039C237.544 73.7113 237.553 73.8198 237.556 73.9285C237.202 78.5918 236.843 83.255 236.479 87.9183C236.43 88.5282 236.262 89.1333 236.179 89.7433C236.178 89.8898 236.145 90.0343 236.082 90.1664C236.018 90.2985 235.926 90.4147 235.812 90.5067C235.698 90.5986 235.565 90.6639 235.423 90.6977C235.28 90.7316 235.132 90.7332 234.988 90.7025C233.68 90.6041 232.367 90.5254 231.053 90.3926C228.558 90.1269 226.065 89.8449 223.576 89.5465C221.894 89.3448 220.221 89.0792 218.539 88.907C214.933 88.543 211.323 88.2183 207.717 87.8789C202.729 87.387 197.736 86.9935 192.758 86.4475C190.432 86.1917 188.139 85.6162 185.813 85.326C183.717 85.0702 181.592 85.0603 179.492 84.8341C177.288 84.6078 175.065 84.2831 172.89 83.983C171.523 83.7961 170.155 83.5649 168.783 83.3829C165.65 82.9648 162.487 82.6844 159.378 82.1236C156.471 81.5973 153.632 80.6725 150.72 80.156C149.023 79.8461 147.247 79.979 145.506 79.8806C143.479 79.7691 141.453 79.6363 139.426 79.4821C138.806 79.4477 138.206 79.2952 137.488 79.1673ZM159.884 48.4577C161.277 46.8738 162.678 45.2653 164.085 43.6715C164.446 43.2286 164.839 42.8127 165.261 42.427C167.319 40.7077 169.646 39.3383 172.148 38.3737C175.124 37.2128 178.05 36.1503 181.307 36.229C182.542 36.2585 183.766 36.229 185.016 36.2585C186.816 36.3175 188.656 36.2585 190.427 36.5536C192.96 37.0094 195.361 38.017 197.461 39.505C199.583 40.9773 201.588 42.612 203.457 44.3946C204.69 45.6638 205.707 47.126 206.468 48.7233C207.403 50.6823 208.169 52.7181 208.755 54.8082C209.341 56.7758 209.183 58.891 209.247 60.957C209.321 63.4165 208.401 65.6203 207.934 67.9371C207.796 68.6061 207.698 69.285 207.58 69.9687C207.358 69.8801 206.989 69.7473 206.62 69.5948C206.251 69.4424 205.823 69.3833 205.597 69.1275C204.53 67.8781 204.421 67.8584 203.516 69.1964C203.324 69.4654 203.175 69.7624 203.074 70.0769C202.582 71.7199 202.09 73.3678 201.736 75.0353C201.719 75.2602 201.75 75.4861 201.825 75.6986C201.9 75.9112 202.019 76.1057 202.173 76.27C203.511 77.6867 205.518 77.2095 207.137 77.9031C207.857 78.1212 208.623 78.145 209.355 77.972C209.556 77.9083 209.74 77.8007 209.894 77.6569C210.048 77.5131 210.168 77.3367 210.246 77.1407C210.679 75.8863 210.988 74.5926 211.372 73.3186C211.657 72.3741 211.751 71.5329 210.6 71.0853C210.274 70.9488 209.956 70.7962 209.646 70.6278C214.358 60.4356 211.613 47.0164 200.998 38.9836L201.342 38.113C198.789 36.4011 196.969 35.6534 194.559 35.2648C194.455 35.2336 194.353 35.1959 194.254 35.1517C190.87 33.9219 187.515 32.8643 183.776 33.3808C180.205 33.8727 176.511 33.4891 173.063 34.8959C170.318 36.0224 167.435 36.893 164.941 38.6295C164.219 39.0377 163.537 39.5137 162.905 40.0511C161.691 41.2603 160.559 42.5487 159.516 43.9076C158.772 45.0258 158.098 46.1889 157.499 47.3903C156.928 47.1689 156.515 46.9918 156.053 46.8344C154.577 46.3425 154.41 46.3917 153.75 47.6903C153.258 48.7184 152.767 49.7662 152.196 50.7697C151.768 51.537 152.196 53.5932 153.017 53.9474C154.493 54.6065 156.003 55.2165 157.504 55.8264C157.687 55.9328 157.892 55.9967 158.104 56.0133C158.315 56.0299 158.527 55.9988 158.725 55.9223C158.923 55.8458 159.101 55.7259 159.247 55.5714C159.392 55.4169 159.501 55.2317 159.565 55.0296C159.993 54.1195 160.465 53.2292 160.903 52.3241C161.985 50.1056 161.95 49.9826 160.003 48.6053C159.959 48.5594 159.92 48.51 159.884 48.4577ZM156.584 14.7032C155.521 13.8768 154.552 13.016 153.47 12.3126C152.85 11.9092 152.137 11.737 151.532 12.6323C150.8 13.6171 150.018 14.5644 149.19 15.4706C148.699 16.0609 148.699 16.6708 149.299 17.1578C150.115 17.8121 151.01 18.3728 151.832 19.0221C153.096 20.006 153.209 20.006 153.991 18.6581C154.4 17.9449 154.798 17.6743 155.639 18.2154C156.55 18.728 157.517 19.1325 158.522 19.4206C158.753 19.4993 159.122 19.155 159.427 19.0074C159.279 18.7073 159.206 18.299 158.97 18.1318C157.986 17.4333 156.928 16.8086 155.841 16.1248L156.584 14.7032ZM226.606 58.3106C227.438 59.0779 228.23 59.8797 229.095 60.593C230.079 61.3948 230.861 61.3112 231.629 60.3323C232.178 59.6522 232.661 58.9208 233.07 58.1482C234.024 56.2987 233.955 56.1413 232.253 54.8918C232.081 54.7639 231.914 54.6213 231.732 54.4983C230.35 53.5538 229.558 53.6965 228.485 55.1279C227.906 54.705 227.296 54.3252 226.66 53.9916C226.355 53.849 225.918 53.9916 225.539 54.0261C225.623 54.395 225.588 54.8771 225.814 55.1083C226.389 55.6421 227.001 56.1352 227.644 56.584C227.31 57.1201 226.985 57.6711 226.606 58.3106ZM169.103 23.1984C168.569 22.7398 168.012 22.308 167.435 21.9047C166.818 21.5042 166.158 21.1742 165.468 20.9209C165.077 20.8674 164.679 20.8891 164.297 20.9848C164.323 21.3908 164.416 21.7897 164.572 22.1654C164.822 22.4814 165.149 22.7272 165.522 22.8787C166.24 23.2181 166.997 23.4395 167.716 23.8084C168.434 24.1773 168.783 23.9166 169.103 23.1984ZM189.763 33.1792C189.404 31.5362 186.246 29.7358 184.657 30.1687C184.726 31.4083 187.82 33.2628 189.782 33.1792H189.763ZM211.618 46.5245C211.913 46.3622 212.321 46.2737 212.44 46.0326C212.461 45.8842 212.445 45.7328 212.394 45.592C212.342 45.4512 212.257 45.3254 212.144 45.2259C211.142 44.5385 210.099 43.9126 209.021 43.3517C208.721 43.1992 208.229 43.4255 207.821 43.4747C207.909 43.8141 207.894 44.3159 208.111 44.4585C209.247 45.1767 210.388 45.8014 211.638 46.5245H211.618ZM221.456 51.3206C219.37 49.2939 217.472 48.3692 216.635 48.925C217.29 50.7401 220.315 52.2896 221.471 51.3206H221.456ZM176.422 25.5005L174.947 25.9924C175.06 26.3171 175.079 26.809 175.306 26.9418C176.274 27.4888 177.273 27.9814 178.296 28.4175C178.434 28.4766 178.788 28.2601 178.897 28.083C178.941 27.9804 178.958 27.8679 178.946 27.7566C178.934 27.6454 178.893 27.5392 178.828 27.4485C178.065 26.7598 177.239 26.14 176.422 25.5005Z" fill="white"/>
<path d="M159.884 48.4575C159.912 48.509 159.943 48.5583 159.978 48.6051C161.946 49.9824 161.946 50.0808 160.878 52.3239C160.44 53.229 159.968 54.1193 159.54 55.0294C159.475 55.228 159.367 55.4099 159.223 55.5618C159.08 55.7137 158.905 55.8321 158.71 55.9082C158.515 55.9844 158.306 56.0165 158.098 56.0024C157.889 55.9882 157.686 55.928 157.504 55.8262C156.003 55.2163 154.498 54.6063 153.017 53.9472C152.216 53.593 151.768 51.5368 152.196 50.7695C152.762 49.7857 153.234 48.7182 153.75 47.6901C154.41 46.3915 154.601 46.3226 156.053 46.8342C156.495 46.9916 156.928 47.1687 157.499 47.3901C158.099 46.1887 158.772 45.0256 159.516 43.9074C160.559 42.5485 161.691 41.2601 162.905 40.0509C163.537 39.5135 164.219 39.0375 164.941 38.6293C167.435 36.8928 170.318 36.0222 173.087 34.8957C176.53 33.4889 180.23 33.8725 183.801 33.3806C187.539 32.8887 190.894 33.9217 194.278 35.1515C194.378 35.1957 194.479 35.2334 194.583 35.2646C196.994 35.6434 198.814 36.4009 201.367 38.1128L201.022 38.9834C211.623 47.0015 214.383 60.4354 209.67 70.6276C209.98 70.796 210.299 70.9486 210.624 71.0851C211.775 71.5327 211.682 72.3739 211.397 73.3184C211.013 74.5924 210.703 75.8861 210.27 77.1405C210.193 77.3365 210.073 77.5129 209.919 77.6567C209.765 77.8005 209.581 77.9081 209.38 77.9718C208.647 78.1448 207.882 78.121 207.161 77.9029C205.543 77.2093 203.536 77.6865 202.198 76.2698C202.044 76.1055 201.925 75.911 201.85 75.6984C201.774 75.4859 201.744 75.26 201.76 75.0351C202.134 73.3675 202.626 71.7197 203.098 70.0767C203.2 69.7622 203.349 69.4652 203.541 69.1962C204.446 67.8582 204.554 67.8779 205.622 69.1273C205.848 69.3831 206.296 69.452 206.645 69.5946C206.994 69.7373 207.383 69.88 207.604 69.9685C207.722 69.2847 207.821 68.6059 207.958 67.9369C208.45 65.6201 209.345 63.4114 209.272 60.9568C209.203 58.8908 209.36 56.7953 208.78 54.808C208.191 52.7194 207.424 50.6852 206.487 48.7281C205.727 47.1307 204.71 45.6685 203.477 44.3993C201.608 42.6167 199.603 40.982 197.481 39.5098C195.381 38.0217 192.979 37.0141 190.446 36.5583C188.685 36.2386 186.846 36.3222 185.036 36.2632C183.801 36.2238 182.576 36.2632 181.327 36.2337C178.08 36.155 175.143 37.2175 172.167 38.3784C169.665 39.343 167.339 40.7124 165.281 42.4317C164.859 42.8174 164.466 43.2333 164.105 43.6762C162.678 45.2552 161.277 46.8736 159.884 48.4575ZM204.899 71.031L203.733 75.0499L208.598 75.8861C208.893 74.9712 209.227 74.0562 209.463 73.1118C209.47 72.9668 209.44 72.8224 209.376 72.6924C209.311 72.5624 209.214 72.451 209.095 72.369C207.771 71.9017 206.414 71.5032 204.899 71.031ZM155.738 48.6985C155.162 49.9135 154.611 51.0695 153.982 52.4026L157.563 54.1095L159.53 50.6317L155.738 48.6985Z" fill="black"/>
<path d="M156.584 14.7029L155.841 16.1245C156.928 16.8082 157.971 17.4329 158.97 18.1314C159.206 18.2987 159.28 18.707 159.427 19.007C159.122 19.1546 158.753 19.4989 158.522 19.4202C157.513 19.1282 156.543 18.7187 155.63 18.2003C154.788 17.674 154.39 17.9298 153.982 18.643C153.2 20.0154 153.086 20.0154 151.822 19.007C151.001 18.3577 150.106 17.7969 149.289 17.1427C148.674 16.6508 148.684 16.0458 149.181 15.4555C150.008 14.5493 150.79 13.602 151.522 12.6172C152.127 11.7219 152.841 11.8941 153.46 12.2975C154.552 13.0156 155.521 13.8765 156.584 14.7029ZM152.831 13.7732L150.74 16.2327C151.498 16.6164 152.413 17.4182 152.806 17.2165C153.529 16.7407 154.033 15.9977 154.208 15.1505C154.287 14.7816 153.308 14.2011 152.831 13.7732Z" fill="black"/>
<path d="M226.606 58.3106C226.985 57.6712 227.31 57.1202 227.644 56.5644C227.001 56.1156 226.389 55.6225 225.815 55.0887C225.588 54.8575 225.623 54.3754 225.539 54.0065C225.918 54.0065 226.356 53.8294 226.661 53.972C227.296 54.3056 227.906 54.6854 228.486 55.1083C229.558 53.6769 230.35 53.5342 231.732 54.4787C231.914 54.6017 232.081 54.7443 232.254 54.8722C233.956 56.1217 234.024 56.2791 233.07 58.1286C232.661 58.9012 232.178 59.6326 231.629 60.3127C230.861 61.2965 230.065 61.3752 229.096 60.5734C228.23 59.8798 227.448 59.078 226.606 58.3106ZM230.581 59.4027L231.973 56.7562L230.237 55.4674C229.681 56.343 229.15 57.1694 228.584 58.0499L230.581 59.4027Z" fill="black"/>
<path d="M169.103 23.1981C168.783 23.9162 168.444 24.2163 167.716 23.8277C166.988 23.4391 166.24 23.2374 165.522 22.898C165.149 22.7466 164.822 22.5008 164.572 22.1847C164.416 21.809 164.323 21.4101 164.297 21.0042C164.679 20.9084 165.077 20.8867 165.468 20.9402C166.158 21.1936 166.818 21.5236 167.435 21.924C168.012 22.321 168.568 22.7462 169.103 23.1981Z" fill="black"/>
<path d="M189.782 33.1793C187.815 33.2629 184.725 31.4084 184.676 30.1688C186.265 29.7261 189.423 31.5363 189.782 33.1793Z" fill="black"/>
<path d="M211.638 46.5242C210.388 45.8011 209.227 45.1763 208.13 44.4582C207.914 44.3204 207.929 43.8187 207.84 43.4743C208.248 43.4252 208.74 43.1989 209.04 43.3514C210.119 43.9218 211.162 44.5575 212.164 45.255C212.276 45.3545 212.362 45.4803 212.413 45.6212C212.465 45.762 212.481 45.9134 212.459 46.0618C212.341 46.2733 211.933 46.3618 211.638 46.5242Z" fill="black"/>
<path d="M221.471 51.3206C220.315 52.3044 217.29 50.7402 216.65 48.925C217.486 48.3593 219.385 49.294 221.471 51.3206Z" fill="black"/>
<path d="M176.422 25.5005C177.239 26.14 178.065 26.7598 178.847 27.4288C178.913 27.5194 178.954 27.6256 178.966 27.7369C178.978 27.8482 178.961 27.9607 178.916 28.0633C178.808 28.2404 178.454 28.4568 178.316 28.3978C177.293 27.9617 176.294 27.4691 175.325 26.9221C175.099 26.7893 175.079 26.2974 174.966 25.9727L176.422 25.5005Z" fill="black"/>
<path d="M204.899 71.0312C206.414 71.5232 207.767 71.9019 209.095 72.3692C209.214 72.4513 209.311 72.5626 209.376 72.6926C209.44 72.8226 209.471 72.967 209.464 73.112C209.227 74.0565 208.893 74.9714 208.598 75.8864L203.733 75.0501L204.899 71.0312Z" fill="white"/>
<path d="M155.738 48.6987L159.555 50.6172L157.587 54.0949L154.006 52.4028C154.611 51.0845 155.162 49.9285 155.738 48.6987Z" fill="white"/>
<path d="M152.831 13.7734C153.322 14.226 154.306 14.8064 154.208 15.1557C154.031 16.001 153.527 16.7421 152.806 17.2168C152.412 17.4234 151.498 16.6216 150.74 16.233L152.831 13.7734Z" fill="white"/>
<path d="M230.581 59.4026L228.584 58.0449C229.149 57.1644 229.681 56.338 230.237 55.4624L231.973 56.7512L230.581 59.4026Z" fill="white"/>
<g style="mix-blend-mode:multiply">
<path d="M199.606 70.5444L210.497 72.2071L209.257 79.6791L197.973 78.4444L199.419 71.2036" fill="#BFE6D8"/>
<path d="M199.606 70.5444L210.497 72.2071L209.257 79.6791L197.973 78.4444L199.419 71.2036" stroke="#BFE6D8" stroke-width="0.491904" stroke-miterlimit="10"/>
</g>
<g style="mix-blend-mode:multiply">
<path d="M151.566 47.8032L162.462 49.4659L161.217 56.9379L149.938 55.7032L151.379 48.4673" fill="#BFE6D8"/>
<path d="M151.566 47.8032L162.462 49.4659L161.217 56.9379L149.938 55.7032L151.379 48.4673" stroke="#BFE6D8" stroke-width="0.491904" stroke-miterlimit="10"/>
</g>
</g>
<g clip-path="url(#clip2_56_649)">
<path d="M191.221 67.2796C191.221 70.0746 191.174 72.8695 191.241 75.6325C191.285 77.3813 191.609 79.1301 191.641 80.879C191.677 84.3567 191.573 87.8384 191.553 91.316C191.553 93.2126 191.581 95.1052 191.613 97.0017C191.669 99.9484 191.693 102.891 191.812 105.834C191.92 108.517 192.152 111.2 192.3 113.883C192.415 115.983 192.519 118.088 192.571 120.192C192.631 122.428 192.643 124.668 192.647 126.904C192.647 129.623 192.595 132.342 192.647 135.061C192.675 136.877 192.863 138.69 192.934 140.507C192.966 141.333 191.868 142.543 191.07 142.903C189.429 143.605 187.676 143.601 185.923 143.701C184.885 143.757 183.855 143.989 182.817 144.044C181.551 144.112 180.277 144.044 179.012 144.1C177.954 144.148 176.899 144.32 175.845 144.356C175.187 144.38 174.524 144.22 173.849 144.2C173.437 144.154 173.019 144.201 172.627 144.336C171.781 144.735 170.978 144.943 170.06 144.52C169.822 144.422 169.555 144.422 169.317 144.52C167.501 145.578 165.456 145.274 163.472 145.318C161.971 145.346 160.465 145.362 158.964 145.338C157.535 145.318 156.101 145.154 154.68 145.198C152.16 145.274 149.649 145.514 147.129 145.598C144.89 145.662 142.646 145.598 140.402 145.598C140.178 145.598 139.958 145.721 139.735 145.729C138.649 145.757 137.563 145.729 136.481 145.793C135.283 145.865 134.129 146.017 132.955 146.149C132.185 146.232 131.418 146.388 130.647 146.432C129.957 146.472 129.258 146.388 128.563 146.388C127.645 146.388 126.726 146.388 125.808 146.44C124.89 146.492 124.099 146.596 123.245 146.612C118.394 146.716 113.534 146.728 108.687 146.907C105.269 147.035 101.871 147.446 98.4537 147.606C94.8283 147.774 91.1909 147.814 87.5614 147.874C85.5331 147.905 83.5048 147.901 81.4805 147.83C80.9819 147.805 80.5129 147.586 80.1748 147.219C79.4841 146.193 78.6776 145.13 78.434 143.993C78.1904 142.855 78.5458 141.505 78.5897 140.251C78.7295 136.219 78.9091 132.182 78.9331 128.149C78.9331 126.816 78.4619 125.486 78.3422 124.157C78.2224 122.827 78.3142 121.421 78.2184 120.06C78.1226 118.698 77.8471 117.205 77.7632 115.78C77.6873 114.502 77.7632 113.216 77.7632 111.935C77.7872 109.87 77.7872 107.806 77.859 105.742C77.895 104.644 78.1425 103.546 78.1385 102.448C78.1385 101.126 77.9628 99.8086 77.879 98.487C77.851 98.0878 77.879 97.6565 77.879 97.2373C77.879 94.4703 77.8471 91.6993 77.879 88.9324C77.879 88.0699 78.1904 87.2155 78.1984 86.353C78.2064 85.4906 77.9828 84.5483 77.9708 83.634C77.9362 80.2694 77.9322 76.9048 77.9589 73.5403C77.9589 71.6437 78.0946 69.7511 78.1066 67.8546C78.1305 67.0041 77.9469 66.1497 77.899 65.2912C77.8271 64.0335 78.8532 63.4745 79.8874 62.9235C80.0191 62.8556 80.2866 62.8876 80.3266 62.8077C81.3008 60.8473 83.2173 62.113 84.6587 61.8774C86.3876 61.6059 88.2003 61.7217 89.9771 61.7097C93.7023 61.6818 97.3916 61.6977 101.097 61.6698C103.449 61.6498 105.8 61.5221 108.148 61.554C110.272 61.582 112.392 61.8535 114.513 61.8495C117.687 61.8495 120.853 61.6858 124.047 61.6179C127.086 61.554 130.132 61.4222 133.167 61.5061C135.702 61.574 138.226 62.0451 140.753 62.101C143.472 62.1569 146.199 61.8814 148.922 61.8694C150.427 61.8694 151.933 62.1968 153.442 62.2008C155.514 62.2008 157.582 62.0052 159.655 61.9653C161.531 61.9253 163.412 62.0132 165.289 61.9653C166.918 61.9373 168.543 61.8016 170.172 61.7576C170.862 61.7377 171.561 61.8455 172.26 61.8774C175.986 62.0558 179.713 62.2314 183.44 62.4045C184.869 62.4683 186.306 62.4324 187.728 62.5682C190.451 62.8357 190.922 63.3667 191.261 65.407C191.357 66.0219 191.417 66.6368 191.493 67.2517L191.221 67.2796ZM81.5244 144.563C82.5146 144.26 82.4986 144.352 84.1636 144.563C85.7033 144.758 87.2563 144.828 88.8072 144.771C92.0293 144.651 95.2475 144.372 98.4697 144.232C101.935 144.064 105.405 143.877 108.875 143.833C111.522 143.813 114.181 144.188 116.816 144.088C120.071 143.961 123.325 143.609 126.555 143.198C130.819 142.655 135.083 142.998 139.352 142.982C142.286 142.982 145.225 142.683 148.16 142.499C150.264 142.363 152.36 142.14 154.464 142.052C156.177 141.98 157.91 142.152 159.623 142.052C162.785 141.844 165.931 141.397 169.094 141.254C172.024 141.13 174.971 141.333 177.906 141.309C182.034 141.273 186.163 141.158 190.283 141.074C190.447 140.367 190.75 139.672 190.738 138.978C190.686 136.354 190.503 133.735 190.431 131.112C190.343 127.958 190.303 124.799 190.283 121.641C190.283 120.108 190.471 118.567 190.379 117.037C190.187 113.883 189.788 110.737 189.624 107.579C189.441 104.169 189.397 100.751 189.349 97.3331C189.305 93.9832 189.325 90.6333 189.325 87.2834C189.325 85.5265 189.433 83.7697 189.353 82.0209C189.257 79.8408 188.886 77.6688 188.874 75.4967C188.874 72.582 189.073 69.6713 189.185 66.7566C189.213 66.0339 188.894 65.5228 187.987 65.5028C186.654 65.4789 185.316 65.5028 183.995 65.5028C181.276 65.4749 178.56 65.415 175.841 65.391C171.877 65.3631 167.912 65.391 163.947 65.3312C157.275 65.2313 150.603 65.0716 143.927 64.9638C141.34 64.9239 138.737 64.9638 136.165 64.9638C132.823 64.9399 129.485 64.9159 126.147 64.848C123.217 64.7881 120.29 64.6364 117.363 64.5805C114.952 64.5379 112.54 64.5379 110.129 64.5805C107.266 64.6324 104.399 64.7043 101.544 64.852C98.1542 65.0277 94.7564 65.2912 91.3785 65.5188C89.6576 65.6346 87.9328 65.7224 86.2119 65.8742C84.7386 66.0059 83.2772 66.2734 81.8199 66.3493C80.9375 66.4012 80.7538 66.6208 80.7618 67.4154C80.8057 71.3323 80.7618 75.2492 80.6939 79.1661C80.6939 80.5516 80.4943 81.937 80.5581 83.3146C80.6939 86.8242 81.0413 90.3258 81.1331 93.8195C81.2449 97.9281 81.189 102.041 81.169 106.153C81.169 107.878 80.9934 109.603 81.0213 111.324C81.0493 113.164 81.2728 115.005 81.3128 116.846C81.3487 118.583 81.2169 120.327 81.2329 122.064C81.2529 124.093 81.3767 126.117 81.4206 128.141C81.4645 130.166 81.4805 132.258 81.5004 134.318C81.5004 135.959 81.5204 137.6 81.5244 139.241C81.5284 140.974 81.5244 142.687 81.5244 144.563Z" fill="black"/>
<path d="M81.5241 144.563C81.5241 142.687 81.5241 140.97 81.5241 139.257C81.5241 137.616 81.5241 135.975 81.5001 134.334C81.5001 132.274 81.4682 130.217 81.4203 128.157C81.3724 126.097 81.2526 124.108 81.2326 122.08C81.2326 120.343 81.3484 118.598 81.3125 116.861C81.2725 115.021 81.0489 113.18 81.021 111.339C80.993 109.619 81.1607 107.894 81.1687 106.169C81.1887 102.056 81.2446 97.9438 81.1328 93.8352C81.041 90.3256 80.6936 86.8239 80.5259 83.3183C80.462 81.9408 80.6457 80.5553 80.6616 79.1698C80.7096 75.2529 80.7734 71.336 80.7295 67.4191C80.7295 66.6205 80.9052 66.4049 81.7876 66.353C83.2649 66.2652 84.7263 66.0096 86.1796 65.8779C87.9005 65.7262 89.6254 65.6383 91.3463 65.5225C94.7361 65.2949 98.134 65.0314 101.512 64.8557C104.367 64.708 107.233 64.6361 110.096 64.5842C112.508 64.539 114.92 64.539 117.331 64.5842C120.262 64.6401 123.189 64.7919 126.115 64.8517C129.453 64.9196 132.791 64.9436 136.133 64.9675C138.72 64.9675 141.324 64.9396 143.895 64.9675C150.571 65.0753 157.243 65.2351 163.915 65.3349C167.88 65.3948 171.844 65.3668 175.809 65.3948C178.528 65.4187 181.243 65.4786 183.962 65.5066C185.3 65.5066 186.638 65.4826 187.955 65.5066C188.853 65.5265 189.173 66.0376 189.153 66.7603C189.041 69.675 188.826 72.5857 188.842 75.5004C188.842 77.6725 189.241 79.8446 189.321 82.0246C189.401 83.7734 189.297 85.5303 189.293 87.2871C189.293 90.637 189.293 93.9869 189.317 97.3368C189.365 100.755 189.408 104.172 189.592 107.582C189.756 110.741 190.155 113.887 190.347 117.041C190.439 118.57 190.239 120.112 190.251 121.645C190.271 124.803 190.311 127.961 190.399 131.116C190.471 133.739 190.654 136.358 190.706 138.981C190.706 139.676 190.415 140.371 190.251 141.078C186.118 141.161 181.99 141.277 177.873 141.313C174.939 141.337 171.992 141.133 169.061 141.257C165.899 141.393 162.753 141.84 159.591 142.056C157.878 142.168 156.145 141.996 154.432 142.056C152.328 142.144 150.232 142.367 148.127 142.503C145.193 142.687 142.254 142.97 139.319 142.986C135.051 142.986 130.787 142.659 126.522 143.202C123.292 143.601 120.038 143.964 116.784 144.092C114.149 144.192 111.49 143.817 108.843 143.837C105.373 143.864 101.903 144.052 98.4374 144.236C95.2153 144.388 91.9971 144.655 88.7749 144.775C87.224 144.832 85.671 144.762 84.1314 144.567C82.4983 144.352 82.5223 144.26 81.5241 144.563ZM89.7691 111.679H89.5256C89.5256 112.789 89.5256 113.899 89.5256 115.009C89.5256 117.76 89.5655 120.511 89.5735 123.262C89.5815 126.013 89.5415 128.768 89.5735 131.523C89.5735 132.721 90.3201 133.555 91.6777 133.739C93.8602 134.073 96.0596 134.287 98.2657 134.378C101.648 134.458 105.053 134.31 108.419 134.302C111.538 134.302 114.656 134.394 117.774 134.378C121.412 134.358 125.045 134.326 128.679 134.186C132.048 134.05 135.406 133.671 138.788 133.994C138.944 134.02 139.103 134.02 139.259 133.994C140.597 133.595 141.99 133.699 143.352 133.727C144.977 133.759 146.602 133.775 148.235 133.923C150.02 134.082 151.865 133.771 153.677 133.603C154.12 133.562 154.539 133.383 154.875 133.092C155.394 132.589 155.674 131.866 156.249 131.447C156.891 130.984 156.907 130.493 156.879 129.886C156.704 125.701 156.537 121.516 156.38 117.329C156.277 114.594 156.173 111.859 156.085 109.123C156.033 107.47 156.013 105.817 155.977 104.164C155.897 100.268 155.853 96.3666 155.698 92.4737C155.674 91.8748 155.438 91.0043 154.472 90.9365C151.741 90.7528 149.002 90.629 146.263 90.5372C143.951 90.4533 141.635 90.4573 139.323 90.3815C136.692 90.2936 134.061 90.09 131.426 90.062C128.79 90.0341 126.099 90.1938 123.44 90.2218C119.523 90.2657 115.606 90.2457 111.689 90.2856C110.128 90.2856 108.563 90.3934 107.002 90.4733C104.658 90.5931 102.314 90.7328 99.9666 90.8726C97.2356 91.0203 94.5046 91.18 91.7695 91.2958C90.7713 91.3397 89.8969 91.8548 89.829 92.7332C89.6853 94.6497 89.5575 96.5702 89.5575 98.4908C89.5575 100.731 89.7252 102.971 89.7651 105.211C89.7971 107.347 89.7691 109.515 89.7691 111.679ZM169.481 133.747C172.675 133.372 175.003 132.948 177.354 132.864C178.796 132.809 178.864 132.178 178.868 131.287C178.872 130.397 178.896 129.606 178.868 128.772C178.8 127.49 178.592 126.216 178.604 124.939C178.624 122.615 178.808 120.287 178.84 117.963C178.876 115.568 178.804 113.172 178.788 110.776C178.788 108.964 178.84 107.151 178.788 105.338C178.74 104.065 178.488 102.799 178.42 101.525C178.325 99.6447 178.321 97.7641 178.265 95.8835C178.229 94.7376 178.125 93.5916 178.129 92.4457C178.129 89.8185 178.221 87.1952 178.233 84.568C178.233 82.9709 178.113 81.3738 178.153 79.8006C178.189 78.4391 178.456 77.0776 178.46 75.716C178.451 74.9875 178.247 74.2747 177.869 73.6518C177.694 73.3723 176.915 73.3763 176.416 73.2525C176.274 73.1912 176.129 73.1378 175.981 73.0928C173.953 72.8053 171.936 72.3981 169.896 72.2943C167.856 72.1904 165.863 72.454 163.847 72.41C161.683 72.3621 160.134 73.2086 160.062 74.7778C159.922 77.8322 159.778 80.8907 159.746 83.9611C159.722 86.2889 159.926 88.6127 159.938 90.9365C159.938 93.1125 159.806 95.2886 159.794 97.4606C159.794 99.2374 159.89 101.01 159.894 102.787C159.894 105.817 159.806 108.848 159.87 111.878C159.93 114.598 160.225 117.313 160.269 120.028C160.353 123.897 160.301 127.77 160.333 131.639C160.376 132.123 160.465 132.601 160.601 133.068C160.619 133.221 160.674 133.368 160.761 133.496C160.847 133.624 160.963 133.73 161.098 133.804C161.233 133.879 161.385 133.92 161.539 133.925C161.693 133.929 161.847 133.897 161.986 133.831C163.024 133.399 163.983 133.723 164.969 133.759C166.738 133.791 168.526 133.747 169.481 133.747ZM110.332 88.0217C110.332 87.9898 110.332 87.9579 110.332 87.9299L121.284 87.4867C123.74 87.3869 126.191 87.2272 128.647 87.1992C132.34 87.1553 136.037 87.1992 139.731 87.1992C144.494 87.2392 149.257 87.311 154.017 87.351C154.38 87.351 154.999 87.2751 155.067 87.1074C155.59 85.7778 156.229 84.4322 156.388 83.0388C156.648 81.5478 156.558 80.017 156.125 78.5669C155.678 77.2413 155.845 75.732 155.873 74.3066C155.873 73.4601 155.322 73.2885 154.632 73.2445C152.332 73.0928 150.028 72.9371 147.724 72.8732C145.504 72.8093 143.28 72.8532 141.056 72.8532C137.598 72.8532 134.137 72.8213 130.675 72.8852C128.359 72.9251 126.043 73.1128 123.728 73.2126C121.276 73.3244 118.824 73.3923 116.373 73.5081C114.776 73.5879 113.179 73.7476 111.582 73.8275C110.555 73.8754 109.521 73.7875 108.499 73.8754C106.427 74.0551 104.371 74.4224 102.294 74.5102C99.5314 74.63 96.7605 74.5102 93.9935 74.5901C93.0272 74.618 92.0809 74.9894 91.1107 75.0612C89.7412 75.185 89.27 75.5563 89.1982 76.7941C89.1383 77.7963 89.0984 78.7905 89.0145 79.7927C88.8189 82.1005 88.5713 84.4003 89.0544 86.7041C89.1782 87.299 89.3459 87.7422 90.2163 87.7622C92.4483 87.8101 94.6762 87.9818 96.9042 88.0058C101.388 88.0497 105.86 88.0217 110.332 88.0217Z" fill="white"/>
<path d="M89.7694 111.679C89.7694 109.515 89.7973 107.347 89.7694 105.183C89.7294 102.943 89.5617 100.703 89.5617 98.463C89.5617 96.5424 89.6895 94.6219 89.8332 92.7054C89.9011 91.827 90.7755 91.3119 91.7737 91.268C94.5088 91.1522 97.2398 90.9925 99.9709 90.8448C102.319 90.717 104.662 90.5773 107.006 90.4455C108.567 90.3656 110.132 90.2738 111.694 90.2578C115.61 90.2179 119.527 90.2578 123.444 90.1939C126.107 90.166 128.775 90.0103 131.43 90.0342C134.085 90.0582 136.696 90.2658 139.327 90.3537C141.639 90.4295 143.955 90.4255 146.267 90.5094C149.006 90.6092 151.745 90.733 154.476 90.9086C155.442 90.9765 155.674 91.8469 155.702 92.4459C155.858 96.3388 155.901 100.24 155.981 104.137C156.017 105.79 156.037 107.443 156.089 109.096C156.177 111.831 156.281 114.566 156.385 117.301C156.544 121.485 156.711 125.671 156.884 129.858C156.912 130.465 156.884 130.956 156.253 131.419C155.674 131.838 155.398 132.561 154.879 133.064C154.543 133.355 154.124 133.534 153.681 133.575C151.869 133.743 150.024 134.054 148.239 133.895C146.606 133.747 144.981 133.731 143.356 133.699C141.995 133.671 140.601 133.555 139.264 133.967C139.108 133.993 138.948 133.993 138.792 133.967C135.411 133.643 132.053 134.022 128.683 134.158C125.049 134.298 121.416 134.33 117.779 134.35C114.66 134.35 111.542 134.27 108.424 134.274C105.038 134.274 101.636 134.43 98.2699 134.35C96.0638 134.259 93.8644 134.046 91.6819 133.711C90.3243 133.527 89.5897 132.693 89.5777 131.495C89.5497 128.74 89.5777 125.989 89.5777 123.234C89.5777 120.479 89.5458 117.732 89.5298 114.981C89.5298 113.871 89.5298 112.761 89.5298 111.651L89.7694 111.679ZM150.739 130.229C149.629 128.78 125.808 112.765 122.51 112.122C117.842 115.464 113.371 118.91 108.595 122.012C103.82 125.115 98.7531 127.85 93.822 130.748L93.8819 131.02C95.1316 131.02 96.3854 131.02 97.6351 131.02C99.7952 130.98 101.955 130.836 104.111 130.884C107.885 130.968 111.634 131.244 115.431 131.096C119.823 130.924 124.215 131.232 128.631 131.212C131.869 131.212 135.107 131 138.345 130.856C141.424 130.716 144.502 130.533 147.581 130.373C148.555 130.321 149.541 130.281 150.739 130.229ZM153.015 93.9911C149.884 95.7079 146.822 96.9178 144.167 98.8343C141 101.122 137.515 103.071 134.185 105.167L125.001 110.92C125.225 111.082 125.46 111.228 125.704 111.356C126.275 111.611 126.902 111.803 127.441 112.082C127.98 112.362 128.551 112.717 129.098 113.049C130.5 113.903 131.921 114.733 133.286 115.632C134.368 116.343 135.343 117.185 136.429 117.896C138.457 119.213 140.541 120.463 142.582 121.769C144.155 122.775 145.752 123.765 147.225 124.863C149.022 126.213 150.691 127.682 152.416 129.083C152.815 129.415 153.298 129.682 153.737 129.982C153.925 129.491 154.137 129 154.288 128.5C154.308 128.327 154.295 128.15 154.248 127.981C154.077 126.113 153.805 124.244 153.757 122.372C153.658 118.527 153.709 114.678 153.638 110.833C153.574 107.195 153.454 103.558 153.326 99.9203C153.266 98.0237 153.13 96.1272 153.015 93.9911ZM120.494 110.872C119.991 110.629 119.695 110.505 119.4 110.337C117.379 109.108 115.407 107.794 113.339 106.648C110.703 105.195 107.928 103.933 105.289 102.484C102.85 101.146 100.49 99.7167 98.1422 98.2394C96.6728 97.309 95.3472 96.211 93.9298 95.2009C93.3349 94.7736 92.704 94.4023 92.0612 93.9631V129.591C96.7407 126.161 102.247 124.164 106.719 120.79C111.191 117.417 115.842 114.206 120.494 110.872ZM149.765 93.0847C148.71 92.9769 147.796 92.8132 146.882 92.8012C145.009 92.8012 143.133 92.901 141.264 92.8651C139.707 92.8332 138.158 92.5936 136.604 92.5736C133.41 92.5297 130.216 92.5417 127.042 92.5736C123.36 92.6176 119.679 92.7333 115.998 92.7733C114.96 92.7733 113.914 92.5577 112.875 92.5936C111.542 92.6375 110.22 92.8691 108.883 92.9569C107.781 93.0288 106.671 92.9969 105.565 93.0288C103.688 93.0887 101.808 93.1007 99.9389 93.2604C98.4177 93.3882 96.9124 93.7076 95.1476 93.9831C96.3454 94.6858 97.2997 95.2248 98.226 95.7958C99.8631 96.798 101.42 97.892 103.129 98.8143C105.569 100.152 108.136 101.314 110.572 102.655C114.337 104.724 118.022 106.904 121.779 108.984C122.27 109.213 122.83 109.246 123.344 109.076C124.513 108.562 125.649 107.978 126.746 107.327C128.647 106.241 130.555 105.163 132.384 103.993C133.734 103.13 134.908 102.06 136.249 101.198C138.21 99.9243 140.242 98.7305 142.262 97.5286C144.482 96.207 146.722 94.9174 148.954 93.6118C149.202 93.46 149.437 93.2963 149.765 93.0847Z" fill="black"/>
<path d="M169.481 133.747C168.526 133.747 166.738 133.795 164.957 133.727C163.959 133.691 163.012 133.368 161.974 133.799C161.835 133.865 161.681 133.898 161.527 133.893C161.373 133.888 161.221 133.847 161.086 133.773C160.951 133.698 160.835 133.593 160.749 133.465C160.662 133.337 160.607 133.19 160.589 133.036C160.453 132.57 160.364 132.091 160.321 131.607C160.289 127.738 160.341 123.865 160.257 119.996C160.201 117.281 159.906 114.566 159.858 111.847C159.794 108.816 159.89 105.786 159.882 102.755C159.882 100.979 159.77 99.2057 159.782 97.4289C159.782 95.2569 159.938 93.0808 159.926 90.9048C159.926 88.581 159.71 86.2572 159.734 83.9294C159.766 80.875 159.91 77.8165 160.05 74.7461C160.122 73.1889 161.671 72.3504 163.835 72.3784C165.831 72.4223 167.88 72.1508 169.884 72.2626C171.888 72.3744 173.941 72.7816 175.969 73.0611C176.117 73.1062 176.262 73.1595 176.404 73.2208C176.903 73.3566 177.682 73.3526 177.857 73.6201C178.235 74.243 178.439 74.9558 178.448 75.6844C178.448 77.0459 178.177 78.4074 178.141 79.769C178.101 81.3661 178.229 82.9632 178.221 84.5363C178.221 87.1636 178.129 89.7868 178.117 92.414C178.117 93.56 178.217 94.7059 178.253 95.8518C178.309 97.7324 178.313 99.613 178.408 101.494C178.476 102.767 178.728 104.033 178.776 105.307C178.836 107.119 178.776 108.932 178.776 110.745C178.776 113.14 178.864 115.536 178.828 117.932C178.796 120.256 178.612 122.583 178.592 124.907C178.592 126.185 178.788 127.459 178.856 128.74C178.9 129.575 178.856 130.417 178.856 131.256C178.856 132.094 178.784 132.777 177.342 132.833C175.003 132.949 172.667 133.368 169.481 133.747ZM176.596 117.097H176.815C176.815 114.266 176.911 111.436 176.815 108.609C176.648 104.72 176.256 100.843 176.085 96.9538C175.953 93.9792 175.981 91.0246 175.953 88.03C175.953 86.6725 175.961 85.3149 175.977 83.9574C175.977 82.8314 176.037 81.7015 176.097 80.5795C176.184 78.9824 176.34 77.4212 176.372 75.8401C176.372 75.5047 176.033 74.9218 175.745 74.8659C174.476 74.613 173.189 74.4634 171.896 74.4187C169.021 74.3508 166.143 74.3947 163.264 74.3708C162.33 74.3708 162.066 74.7022 162.066 75.5087C162.206 80.0844 162.354 84.6601 162.381 89.2358C162.421 96.3868 162.35 103.538 162.381 110.689C162.381 114.139 162.449 117.584 162.521 121.034C162.588 124.079 162.69 127.126 162.829 130.174C162.829 130.497 163.264 131.1 163.456 131.088C165.304 130.96 167.049 131.699 168.974 131.335C171.253 130.904 173.629 130.868 175.953 130.601C176.264 130.569 176.751 130.202 176.751 129.974C176.783 129.131 176.596 128.281 176.588 127.435C176.58 123.989 176.596 120.539 176.596 117.093V117.097Z" fill="black"/>
<path d="M110.332 88.0217C105.86 88.0217 101.388 88.0497 96.9163 88.0217C94.6883 87.9978 92.4604 87.8261 90.2284 87.7782C89.358 87.7782 89.1903 87.315 89.0665 86.7201C88.5834 84.4163 88.831 82.1164 89.0266 79.8086C89.1104 78.8104 89.1504 77.8123 89.2103 76.8101C89.2821 75.5723 89.7533 75.213 91.1228 75.0772C92.093 74.9894 93.0393 74.634 94.0056 74.6061C96.7726 74.5302 99.5435 74.646 102.307 74.5262C104.383 74.4384 106.439 74.071 108.511 73.8914C109.533 73.8035 110.568 73.8914 111.594 73.8434C113.191 73.7636 114.788 73.6039 116.385 73.524C118.837 73.4082 121.288 73.3404 123.74 73.2286C126.055 73.1287 128.371 72.9411 130.687 72.9012C134.145 72.8373 137.607 72.8732 141.068 72.8692C143.292 72.8692 145.516 72.8253 147.736 72.8892C150.04 72.9531 152.344 73.1088 154.644 73.2605C155.334 73.3044 155.901 73.4761 155.885 74.3226C155.857 75.748 155.69 77.2573 156.137 78.5829C156.563 80.0289 156.65 81.554 156.388 83.0388C156.213 84.4283 155.59 85.7738 155.059 87.1154C154.991 87.2831 154.372 87.3629 154.009 87.3589C149.249 87.319 144.486 87.2471 139.723 87.2072C136.029 87.1793 132.332 87.1513 128.639 87.2072C126.183 87.2352 123.732 87.3949 121.276 87.4947L110.34 87.9299C110.336 87.9579 110.336 87.9898 110.332 88.0217ZM91.0469 86.1451H96.9323C100.725 86.1451 104.519 86.1451 108.312 86.1252C110.552 86.1252 112.792 86.1012 115.027 86.0094C119.819 85.8098 124.566 85.4784 129.338 85.3586C133.115 85.2627 136.9 85.3945 140.677 85.4384C144.67 85.481 148.653 85.5356 152.627 85.6021C153.326 85.6021 153.645 85.3386 153.681 84.7437C153.773 82.9869 153.881 81.2301 153.977 79.4732C154.061 78.5121 154.092 77.547 154.069 76.5825C154.041 76.0594 153.837 75.1451 153.546 75.0932C151.944 74.7936 150.32 74.6254 148.69 74.5901C146.151 74.5422 143.604 74.662 141.06 74.6899C138.385 74.7179 135.702 74.658 133.027 74.7418C129.833 74.8416 126.678 75.0652 123.504 75.217C121.711 75.3048 119.911 75.3567 118.122 75.4246C115.179 75.5324 112.241 75.6362 109.302 75.752C108.328 75.7879 107.349 75.8159 106.375 75.8917C104.047 76.0794 101.732 76.3789 99.3998 76.4667C97.068 76.5545 94.8361 76.4308 92.5562 76.4188C91.3584 76.4188 91.031 76.8181 91.1068 77.924C91.1547 78.5749 91.0509 79.2337 91.0469 79.8925C91.0389 82.0007 91.0469 84.1088 91.0469 86.1451Z" fill="black"/>
<path d="M150.739 130.229C149.541 130.281 148.555 130.321 147.568 130.369C144.49 130.529 141.412 130.712 138.333 130.852C135.095 130.996 131.857 131.192 128.619 131.208C124.227 131.228 119.807 130.92 115.419 131.092C111.622 131.239 107.872 130.964 104.099 130.88C101.943 130.832 99.783 130.976 97.6229 131.016C96.3732 131.036 95.1194 131.016 93.8697 131.016L93.8098 130.744C98.7529 127.846 103.824 125.107 108.583 122.008C113.342 118.91 117.83 115.46 122.498 112.118C125.808 112.765 149.629 128.78 150.739 130.229Z" fill="white"/>
<path d="M153.015 93.9912C153.13 96.1273 153.266 98.0239 153.334 99.9205C153.462 103.558 153.581 107.195 153.645 110.833C153.717 114.678 153.665 118.527 153.765 122.372C153.813 124.244 154.085 126.113 154.256 127.982C154.302 128.15 154.316 128.327 154.296 128.501C154.136 129 153.933 129.491 153.745 129.982C153.306 129.683 152.835 129.415 152.424 129.084C150.683 127.682 149.014 126.213 147.233 124.863C145.76 123.757 144.163 122.775 142.589 121.769C140.549 120.463 138.465 119.213 136.437 117.896C135.351 117.185 134.376 116.343 133.294 115.632C131.929 114.734 130.499 113.903 129.106 113.049C128.559 112.717 128.024 112.37 127.449 112.082C126.874 111.795 126.283 111.611 125.712 111.356C125.468 111.228 125.233 111.082 125.009 110.921L134.193 105.167C137.539 103.071 141.024 101.122 144.175 98.8344C146.806 96.9179 149.884 95.7081 153.015 93.9912Z" fill="white"/>
<path d="M120.493 110.873C115.842 114.207 111.19 117.409 106.718 120.791C102.246 124.173 96.7363 126.173 92.0608 129.575V93.9634C92.7036 94.3866 93.3345 94.7619 93.9294 95.2011C95.3388 96.2113 96.6724 97.3093 98.1418 98.2396C100.49 99.7169 102.849 101.146 105.281 102.484C107.92 103.933 110.695 105.195 113.33 106.648C115.41 107.794 117.371 109.108 119.391 110.338C119.675 110.505 119.99 110.629 120.493 110.873Z" fill="white"/>
<path d="M149.764 93.0848C149.437 93.2964 149.201 93.4601 148.966 93.6078C146.734 94.9134 144.494 96.2031 142.274 97.5247C140.254 98.7225 138.221 99.9204 136.261 101.194C134.919 102.064 133.745 103.135 132.396 103.989C130.567 105.159 128.659 106.237 126.758 107.323C125.66 107.974 124.524 108.558 123.356 109.072C122.842 109.242 122.282 109.209 121.791 108.98C118.034 106.9 114.349 104.72 110.583 102.651C108.148 101.31 105.581 100.148 103.141 98.8104C101.448 97.888 99.8749 96.814 98.2378 95.7918C97.3115 95.2209 96.3573 94.6819 95.1594 93.9791C96.9282 93.7036 98.4335 93.3842 99.9507 93.2564C101.819 93.0967 103.7 93.0848 105.577 93.0249C106.683 92.9929 107.793 93.0249 108.895 92.953C110.228 92.8652 111.55 92.6336 112.887 92.5896C113.925 92.5537 114.972 92.7813 116.01 92.7693C119.691 92.7294 123.372 92.6136 127.054 92.5697C130.248 92.5338 133.442 92.5218 136.616 92.5697C138.169 92.5897 139.719 92.8292 141.276 92.8612C143.144 92.8971 145.021 92.7813 146.894 92.7973C147.796 92.8132 148.71 92.9769 149.764 93.0848Z" fill="white"/>
<path d="M176.596 117.093C176.596 120.539 176.596 123.989 176.596 127.435C176.596 128.281 176.791 129.132 176.759 129.974C176.759 130.202 176.26 130.569 175.961 130.601C173.637 130.868 171.261 130.904 168.981 131.336C167.065 131.699 165.312 130.96 163.463 131.088C163.272 131.088 162.853 130.497 162.837 130.174C162.698 127.126 162.596 124.079 162.529 121.034C162.457 117.585 162.393 114.139 162.389 110.689C162.389 103.538 162.449 96.387 162.389 89.2359C162.361 84.6602 162.214 80.0845 162.074 75.5088C162.05 74.7103 162.325 74.3589 163.272 74.3709C166.151 74.3949 169.029 74.3709 171.904 74.4188C173.197 74.4636 174.484 74.6131 175.753 74.866C176.041 74.9219 176.384 75.5048 176.38 75.8402C176.348 77.4373 176.192 78.9985 176.104 80.5796C176.045 81.7016 176.005 82.8316 175.985 83.9575C175.963 85.3151 175.953 86.6726 175.953 88.0301C175.953 91.0047 175.921 93.9793 176.053 96.95C176.224 100.839 176.616 104.716 176.783 108.605C176.899 111.432 176.783 114.263 176.783 117.093H176.596Z" fill="white"/>
<path d="M91.0469 86.1454C91.0469 84.1091 91.0469 82.0009 91.0469 79.8888C91.0469 79.23 91.1547 78.5712 91.1068 77.9203C91.0309 76.8303 91.3743 76.4111 92.5561 76.4151C94.836 76.4151 97.1239 76.5508 99.3997 76.463C101.676 76.3751 104.047 76.0637 106.375 75.888C107.349 75.8122 108.328 75.7842 109.302 75.7483C112.24 75.6325 115.179 75.5287 118.122 75.4209C119.915 75.353 121.715 75.3011 123.504 75.2132C126.698 75.0615 129.849 74.8379 133.027 74.7381C135.702 74.6543 138.385 74.7142 141.06 74.6862C143.604 74.6583 146.151 74.5385 148.69 74.5864C150.32 74.6217 151.944 74.7899 153.546 75.0895C153.837 75.1414 154.041 76.0557 154.069 76.5788C154.092 77.5433 154.061 78.5084 153.977 79.4695C153.881 81.2263 153.773 82.9832 153.681 84.74C153.645 85.3349 153.326 85.6064 152.627 85.5984C148.634 85.5345 144.651 85.48 140.677 85.4347C136.9 85.3908 133.115 85.259 129.337 85.3549C124.546 85.4746 119.799 85.806 115.027 86.0057C112.791 86.0975 110.552 86.1055 108.312 86.1215C104.518 86.1414 100.725 86.1215 96.9322 86.1414L91.0469 86.1454ZM115.582 83.4383C115.582 83.3944 115.582 83.3545 115.582 83.3146C116.533 83.3146 117.487 83.3744 118.429 83.3146C119.148 83.2547 119.627 82.7955 119.364 82.1567C119.238 81.9889 119.077 81.8507 118.892 81.7521C118.707 81.6534 118.503 81.5966 118.293 81.5857C116.804 81.5338 115.311 81.6296 113.822 81.5857C111.35 81.5258 108.871 81.2463 106.411 81.3541C103.253 81.4899 100.11 81.9051 96.9681 82.2405C96.6687 82.2724 96.1696 82.7196 96.1896 82.7875C96.3812 83.1469 96.6847 83.6939 96.9881 83.7218C98.2777 83.8502 99.5757 83.8729 100.869 83.7897C102.271 83.6899 103.664 83.2507 105.049 83.2427C108.575 83.2267 112.069 83.3705 115.582 83.4383ZM98.9645 78.4873V78.3955C98.2263 78.3795 97.488 78.4222 96.7565 78.5232C96.4331 78.5871 96.2055 79.0144 95.934 79.2779C96.1896 79.4496 96.4291 79.737 96.7046 79.765C97.7061 79.8688 98.7123 79.9208 99.7192 79.9207C102.778 79.9207 105.836 79.8968 108.903 79.8049C109.274 79.7929 109.673 79.3018 110.072 79.0463C109.673 78.7987 109.274 78.3516 108.875 78.3396C107.625 78.3076 106.375 78.4753 105.121 78.4953C103.069 78.5113 101.017 78.4873 98.9645 78.4873Z" fill="white"/>
<path d="M115.582 83.4381C112.077 83.3582 108.575 83.2145 105.073 83.2304C103.68 83.2304 102.278 83.6776 100.893 83.7775C99.5996 83.8607 98.3016 83.838 97.012 83.7096C96.6886 83.6816 96.3851 83.1346 96.2135 82.7753C96.1775 82.7074 96.6926 82.2602 96.992 82.2283C100.134 81.8929 103.277 81.4776 106.435 81.3419C108.894 81.2341 111.374 81.5136 113.845 81.5735C115.335 81.6094 116.828 81.5136 118.317 81.5735C118.527 81.5843 118.731 81.6411 118.916 81.7398C119.101 81.8385 119.262 81.9766 119.387 82.1444C119.651 82.7833 119.172 83.2424 118.453 83.3023C117.511 83.3822 116.557 83.3023 115.606 83.3023C115.582 83.3662 115.582 83.4061 115.582 83.4381Z" fill="black"/>
<path d="M98.9644 78.487C101.017 78.487 103.069 78.511 105.121 78.487C106.375 78.487 107.625 78.2994 108.874 78.3313C109.274 78.3313 109.673 78.7905 110.072 79.038C109.673 79.3095 109.306 79.8006 108.91 79.8126C105.852 79.9044 102.793 79.9204 99.727 79.9284C98.7202 79.9285 97.714 79.8765 96.7125 79.7727C96.437 79.7447 96.1974 79.4573 95.9419 79.2856C96.2134 79.022 96.441 78.5948 96.7644 78.5309C97.4959 78.4299 98.2342 78.3872 98.9724 78.4032L98.9644 78.487Z" fill="black"/>
</g>
<defs>
<clipPath id="clip0_56_649">
<rect width="88.8617" height="72.7845" fill="white" transform="translate(0 43.812)"/>
</clipPath>
<clipPath id="clip1_56_649">
<rect width="110.733" height="93.8849" fill="white" transform="translate(134.969)"/>
</clipPath>
<clipPath id="clip2_56_649">
<rect width="115.183" height="86.3754" fill="white" transform="translate(77.731 61.478)"/>
</clipPath>
</defs>
</svg>
